<svg width="18" height="22" viewBox="0 0 18 22" fill="none" xmlns="http://www.w3.org/2000/svg">
<path d="M6.97031 17.423L7.57256 15.7505C7.90302 14.8336 8.43166 14.0009 9.12082 13.3118C9.80998 12.6226 10.6427 12.094 11.5596 11.7635L13.2321 11.1613C13.2651 11.1492 13.2936 11.1272 13.3137 11.0984C13.3339 11.0695 13.3447 11.0352 13.3447 11C13.3447 10.9649 13.3339 10.9305 13.3137 10.9017C13.2936 10.8728 13.2651 10.8509 13.2321 10.8388L11.5596 10.2365C10.6427 9.90607 9.80998 9.37742 9.12082 8.68826C8.43166 7.9991 7.90302 7.16641 7.57256 6.24953L6.97031 4.57703C6.9582 4.544 6.93624 4.51549 6.9074 4.49535C6.87856 4.47521 6.84423 4.46441 6.80906 4.46441C6.77388 4.46441 6.73955 4.47521 6.71071 4.49535C6.68188 4.51549 6.65992 4.544 6.64781 4.57703L6.04556 6.24953C5.7151 7.16641 5.18645 7.9991 4.49729 8.68826C3.80814 9.37742 2.97544 9.90607 2.05856 10.2365L0.386056 10.8388C0.353031 10.8509 0.324521 10.8728 0.304379 10.9017C0.284238 10.9305 0.273438 10.9649 0.273438 11C0.273438 11.0352 0.284238 11.0695 0.304379 11.0984C0.324521 11.1272 0.353031 11.1492 0.386056 11.1613L2.05856 11.7635C2.97544 12.094 3.80814 12.6226 4.49729 13.3118C5.18645 14.0009 5.7151 14.8336 6.04556 15.7505L6.64781 17.423C6.65958 17.4564 6.68141 17.4853 6.71029 17.5057C6.73917 17.5261 6.77368 17.5371 6.80906 17.5371C6.84443 17.5371 6.87894 17.5261 6.90782 17.5057C6.9367 17.4853 6.95853 17.4564 6.97031 17.423ZM14.4988 21.4423L14.8041 20.5955C14.9715 20.1313 15.2393 19.7097 15.5883 19.3607C15.9372 19.0118 16.3588 18.744 16.8231 18.5765L17.6698 18.2713C17.6866 18.2652 17.7011 18.254 17.7113 18.2394C17.7216 18.2248 17.727 18.2074 17.727 18.1895C17.727 18.1717 17.7216 18.1543 17.7113 18.1396C17.7011 18.125 17.6866 18.1139 17.6698 18.1078L16.8231 17.8025C16.3588 17.635 15.9372 17.3673 15.5883 17.0183C15.2393 16.6694 14.9715 16.2478 14.8041 15.7835L14.4988 14.9368C14.4927 14.92 14.4816 14.9055 14.467 14.8953C14.4523 14.885 14.4349 14.8795 14.4171 14.8795C14.3992 14.8795 14.3818 14.885 14.3672 14.8953C14.3525 14.9055 14.3414 14.92 14.3353 14.9368L14.0301 15.7835C13.8626 16.2478 13.5948 16.6694 13.2459 17.0183C12.8969 17.3673 12.4753 17.635 12.0111 17.8025L11.1643 18.1078C11.1475 18.1139 11.133 18.125 11.1228 18.1396C11.1126 18.1543 11.1071 18.1717 11.1071 18.1895C11.1071 18.2074 11.1126 18.2248 11.1228 18.2394C11.133 18.254 11.1475 18.2652 11.1643 18.2713L12.0111 18.5765C12.4753 18.744 12.8969 19.0118 13.2459 19.3607C13.5948 19.7097 13.8626 20.1313 14.0301 20.5955L14.3353 21.4423C14.3414 21.4591 14.3525 21.4735 14.3672 21.4838C14.3818 21.494 14.3992 21.4995 14.4171 21.4995C14.4349 21.4995 14.4523 21.494 14.467 21.4838C14.4816 21.4735 14.4927 21.4591 14.4988 21.4423ZM14.4988 7.06253L14.8041 6.21578C14.9715 5.75155 15.2393 5.32994 15.5883 4.98098C15.9372 4.63201 16.3588 4.36426 16.8231 4.19678L17.6698 3.89153C17.6866 3.88542 17.7011 3.8743 17.7113 3.85967C17.7216 3.84505 17.727 3.82763 17.727 3.80978C17.727 3.79192 17.7216 3.7745 17.7113 3.75988C17.7011 3.74525 17.6866 3.73413 17.6698 3.72803L16.8231 3.42278C16.3588 3.25529 15.9372 2.98754 15.5883 2.63857C15.2393 2.28961 14.9715 1.868 14.8041 1.40377L14.4988 0.557026C14.4927 0.540251 14.4816 0.525759 14.467 0.51552C14.4523 0.505281 14.4349 0.49979 14.4171 0.49979C14.3992 0.49979 14.3818 0.505281 14.3672 0.51552C14.3525 0.525759 14.3414 0.540251 14.3353 0.557026L14.0301 1.40377C13.8626 1.868 13.5948 2.28961 13.2459 2.63857C12.8969 2.98754 12.4753 3.25529 12.0111 3.42278L11.1643 3.72803C11.1475 3.73413 11.133 3.74525 11.1228 3.75988C11.1126 3.7745 11.1071 3.79192 11.1071 3.80978C11.1071 3.82763 11.1126 3.84505 11.1228 3.85967C11.133 3.8743 11.1475 3.88542 11.1643 3.89153L12.0111 4.19678C12.4753 4.36426 12.8969 4.63201 13.2459 4.98098C13.5948 5.32994 13.8626 5.75155 14.0301 6.21578L14.3353 7.06253C14.3631 7.13903 14.4718 7.13903 14.4988 7.06253Z" fill="#87AB21"/>
</svg>
