<svg width="20" height="21" viewBox="0 0 20 21" fill="none" xmlns="http://www.w3.org/2000/svg">
<path d="M17.5 5.49999H4.16667C3.81524 5.49934 3.46786 5.42491 3.14702 5.2815C2.82618 5.13809 2.53904 4.92891 2.30417 4.66749C2.53832 4.40507 2.82529 4.1951 3.14626 4.05134C3.46724 3.90759 3.81497 3.83329 4.16667 3.83332H19.1667C19.3877 3.83332 19.5996 3.74553 19.7559 3.58925C19.9122 3.43297 20 3.221 20 2.99999C20 2.77898 19.9122 2.56701 19.7559 2.41073C19.5996 2.25445 19.3877 2.16666 19.1667 2.16666H4.16667C3.0616 2.16666 2.00179 2.60564 1.22039 3.38704C0.438987 4.16845 0 5.22825 0 6.33332L0 14.6667C0 15.7717 0.438987 16.8315 1.22039 17.6129C2.00179 18.3943 3.0616 18.8333 4.16667 18.8333H17.5C18.163 18.8333 18.7989 18.5699 19.2678 18.1011C19.7366 17.6322 20 16.9964 20 16.3333V7.99999C20 7.33695 19.7366 6.70106 19.2678 6.23222C18.7989 5.76338 18.163 5.49999 17.5 5.49999ZM18.3333 16.3333C18.3333 16.7925 17.96 17.1667 17.5 17.1667H4.16667C2.78833 17.1667 1.66667 16.045 1.66667 14.6667V6.33166C2.38803 6.87253 3.26505 7.16546 4.16667 7.16666H17.5C17.96 7.16666 18.3333 7.54082 18.3333 7.99999V16.3333ZM16.6667 12.1667C16.6667 12.3877 16.5789 12.5996 16.4226 12.7559C16.2663 12.9122 16.0543 13 15.8333 13C15.6123 13 15.4004 12.9122 15.2441 12.7559C15.0878 12.5996 15 12.3877 15 12.1667C15 11.9456 15.0878 11.7337 15.2441 11.5774C15.4004 11.4211 15.6123 11.3333 15.8333 11.3333C16.0543 11.3333 16.2663 11.4211 16.4226 11.5774C16.5789 11.7337 16.6667 11.9456 16.6667 12.1667Z" fill="#4B4B4B"/>
</svg>
