<svg width="20" height="20" viewBox="0 0 20 20" fill="none" xmlns="http://www.w3.org/2000/svg">
<path d="M7.5 10C10.2575 10 12.5 7.7575 12.5 5C12.5 2.2425 10.2575 0 7.5 0C4.7425 0 2.5 2.2425 2.5 5C2.5 7.7575 4.7425 10 7.5 10ZM7.5 1.66667C9.33833 1.66667 10.8333 3.16167 10.8333 5C10.8333 6.83833 9.33833 8.33333 7.5 8.33333C5.66167 8.33333 4.16667 6.83833 4.16667 5C4.16667 3.16167 5.66167 1.66667 7.5 1.66667ZM8.33333 12.5C8.33333 12.721 8.24554 12.933 8.08926 13.0893C7.93297 13.2455 7.72101 13.3333 7.5 13.3333C4.28333 13.3333 1.66667 15.95 1.66667 19.1667C1.66667 19.3877 1.57887 19.5996 1.42259 19.7559C1.26631 19.9122 1.05435 20 0.833333 20C0.61232 20 0.400358 19.9122 0.244078 19.7559C0.0877974 19.5996 0 19.3877 0 19.1667C0 15.0317 3.365 11.6667 7.5 11.6667C7.72101 11.6667 7.93297 11.7545 8.08926 11.9107C8.24554 12.067 8.33333 12.279 8.33333 12.5ZM17.5 11.7092V11.6667C17.5 10.7475 16.7525 10 15.8333 10H14.1667C13.2475 10 12.5 10.7475 12.5 11.6667V11.7092C11.09 11.9133 10 13.1183 10 14.5833V17.0833C10 18.6917 11.3083 20 12.9167 20H17.0833C18.6917 20 20 18.6917 20 17.0833V14.5833C20 13.1183 18.91 11.9133 17.5 11.7092ZM12.9167 13.3333H17.0833C17.7725 13.3333 18.3333 13.8942 18.3333 14.5833V15H11.6667V14.5833C11.6667 13.8942 12.2275 13.3333 12.9167 13.3333ZM17.0833 18.3333H12.9167C12.2275 18.3333 11.6667 17.7725 11.6667 17.0833V16.6667H14.1667C14.1667 16.8877 14.2545 17.0996 14.4107 17.2559C14.567 17.4122 14.779 17.5 15 17.5C15.221 17.5 15.433 17.4122 15.5893 17.2559C15.7455 17.0996 15.8333 16.8877 15.8333 16.6667H18.3333V17.0833C18.3333 17.7725 17.7725 18.3333 17.0833 18.3333Z" fill="#16423C"/>
</svg>
