<svg width="20" height="21" viewBox="0 0 20 21" fill="none" xmlns="http://www.w3.org/2000/svg">
<path d="M11.6667 8.83333C11.6672 9.65 11.4259 10.4485 10.9733 11.1283L8.5775 8.73249C8.42121 8.57625 8.33338 8.36432 8.33333 8.14333V4.75083C9.27433 4.94291 10.1201 5.45416 10.7275 6.19809C11.3349 6.94201 11.6667 7.87293 11.6667 8.83333ZM6.66667 8.48833V4.75083C5.60299 4.96839 4.66607 5.59214 4.05499 6.48954C3.44392 7.38694 3.20685 8.48725 3.39417 9.55666C3.665 11.1683 4.91083 12.5092 6.50167 12.8833C7.72667 13.1708 8.885 12.9108 9.795 12.3075L7.15417 9.66666C6.84158 9.35417 6.66676 8.93032 6.66667 8.48833ZM15.8333 4.66666H14.1667C13.9457 4.66666 13.7337 4.75446 13.5774 4.91074C13.4211 5.06702 13.3333 5.27898 13.3333 5.5C13.3333 5.72101 13.4211 5.93297 13.5774 6.08925C13.7337 6.24553 13.9457 6.33333 14.1667 6.33333H15.8333C16.0543 6.33333 16.2663 6.24553 16.4226 6.08925C16.5789 5.93297 16.6667 5.72101 16.6667 5.5C16.6667 5.27898 16.5789 5.06702 16.4226 4.91074C16.2663 4.75446 16.0543 4.66666 15.8333 4.66666ZM15.8333 8H14.1667C13.9457 8 13.7337 8.08779 13.5774 8.24407C13.4211 8.40035 13.3333 8.61231 13.3333 8.83333C13.3333 9.05434 13.4211 9.2663 13.5774 9.42258C13.7337 9.57886 13.9457 9.66666 14.1667 9.66666H15.8333C16.0543 9.66666 16.2663 9.57886 16.4226 9.42258C16.5789 9.2663 16.6667 9.05434 16.6667 8.83333C16.6667 8.61231 16.5789 8.40035 16.4226 8.24407C16.2663 8.08779 16.0543 8 15.8333 8ZM15.8333 11.3333H14.1667C13.9457 11.3333 13.7337 11.4211 13.5774 11.5774C13.4211 11.7337 13.3333 11.9456 13.3333 12.1667C13.3333 12.3877 13.4211 12.5996 13.5774 12.7559C13.7337 12.9122 13.9457 13 14.1667 13H15.8333C16.0543 13 16.2663 12.9122 16.4226 12.7559C16.5789 12.5996 16.6667 12.3877 16.6667 12.1667C16.6667 11.9456 16.5789 11.7337 16.4226 11.5774C16.2663 11.4211 16.0543 11.3333 15.8333 11.3333ZM20 5.5V12.1667C20 14.4642 18.1308 16.3333 15.8333 16.3333H10.8333V18H14.1667C14.3877 18 14.5996 18.0878 14.7559 18.2441C14.9122 18.4004 15 18.6123 15 18.8333C15 19.0543 14.9122 19.2663 14.7559 19.4226C14.5996 19.5789 14.3877 19.6667 14.1667 19.6667H5.83333C5.61232 19.6667 5.40036 19.5789 5.24408 19.4226C5.0878 19.2663 5 19.0543 5 18.8333C5 18.6123 5.0878 18.4004 5.24408 18.2441C5.40036 18.0878 5.61232 18 5.83333 18H9.16667V16.3333H4.16667C1.86917 16.3333 0 14.4642 0 12.1667V5.5C0 3.20249 1.86917 1.33333 4.16667 1.33333H15.8333C18.1308 1.33333 20 3.20249 20 5.5ZM18.3333 5.5C18.3333 4.12166 17.2117 2.99999 15.8333 2.99999H4.16667C2.78833 2.99999 1.66667 4.12166 1.66667 5.5V12.1667C1.66667 13.545 2.78833 14.6667 4.16667 14.6667H15.8333C17.2117 14.6667 18.3333 13.545 18.3333 12.1667V5.5Z" fill="#4B4B4B"/>
</svg>
