<svg width="20" height="20" viewBox="0 0 20 20" fill="none" xmlns="http://www.w3.org/2000/svg">
<g clip-path="url(#clip0_1928_666)">
<path d="M10 20C4.48583 20 0 15.5142 0 10C0 4.48583 4.48583 0 10 0C15.5142 0 20 4.48583 20 10C20 15.5142 15.5142 20 10 20ZM10 1.66667C5.405 1.66667 1.66667 5.405 1.66667 10C1.66667 14.595 5.405 18.3333 10 18.3333C14.595 18.3333 18.3333 14.595 18.3333 10C18.3333 5.405 14.595 1.66667 10 1.66667ZM14.1667 10C14.1667 9.77899 14.0789 9.56702 13.9226 9.41074C13.7663 9.25446 13.5543 9.16667 13.3333 9.16667H10.8333V5C10.8333 4.77899 10.7455 4.56702 10.5893 4.41074C10.433 4.25446 10.221 4.16667 10 4.16667C9.77899 4.16667 9.56702 4.25446 9.41074 4.41074C9.25446 4.56702 9.16667 4.77899 9.16667 5V10C9.16667 10.221 9.25446 10.433 9.41074 10.5893C9.56702 10.7455 9.77899 10.8333 10 10.8333H13.3333C13.5543 10.8333 13.7663 10.7455 13.9226 10.5893C14.0789 10.433 14.1667 10.221 14.1667 10Z" fill="#16423C"/>
</g>
<defs>
<clipPath id="clip0_1928_666">
<rect width="20" height="20" fill="white"/>
</clipPath>
</defs>
</svg>
