<svg width="32" height="32" viewBox="0 0 32 32" fill="none" xmlns="http://www.w3.org/2000/svg">
<path d="M17.7325 4.02396C18.2582 3.73331 18.8649 3.66721 19.4317 3.82278L19.4444 3.82571C19.948 3.97098 20.3739 4.27487 20.6719 4.69583L20.7911 4.88333L20.7989 4.89505H20.7979L21.6319 6.39603H23.3536C24.5941 6.39612 25.6046 7.40744 25.6046 8.64798V10.3628L27.1075 11.2036L27.1104 11.2046C28.189 11.8114 28.582 13.1813 27.9756 14.271L27.9747 14.273L27.0079 15.9995L27.9747 17.7271L27.9766 17.731L28.0753 17.9322C28.2807 18.4083 28.3149 18.9351 28.1788 19.4312L28.1749 19.4439C28.0088 20.019 27.6362 20.4929 27.1182 20.7906L27.1075 20.7964L25.6046 21.6363V23.3521C25.6046 24.5926 24.5941 25.6039 23.3536 25.604H21.6319L20.7979 27.105L20.7911 27.1167C20.4934 27.635 20.0198 28.0084 19.4444 28.1743L19.4317 28.1773C18.8649 28.3328 18.2582 28.2667 17.7325 27.9761L17.7276 27.9732L16.0001 27.0074L14.2735 27.9732L14.2667 27.9771C13.9206 28.1669 13.5481 28.2573 13.1729 28.2574C12.9855 28.2574 12.7809 28.2365 12.5674 28.1773L12.5577 28.1743C11.9823 28.0084 11.5077 27.635 11.21 27.1167L11.2032 27.105L10.3692 25.604H8.6485C7.4079 25.604 6.39655 24.5927 6.39655 23.3521V21.6353L4.89459 20.7964L4.88385 20.7906C4.3658 20.4929 3.99326 20.019 3.82721 19.4439L3.8233 19.4312C3.66765 18.8641 3.73454 18.2569 4.02545 17.731L4.0274 17.7271L4.99323 15.9995L4.0274 14.273L4.02643 14.271C3.41996 13.1813 3.81295 11.8114 4.89166 11.2046L4.89459 11.2036L6.39655 10.3638V8.64798C6.39655 7.40738 7.4079 6.39603 8.6485 6.39603H10.3692L11.2032 4.89505L11.21 4.88333C11.5077 4.36508 11.9823 3.9917 12.5577 3.82571L12.5704 3.82278C13.0665 3.68666 13.5932 3.71981 14.0694 3.92532L14.2696 4.02396L14.2735 4.02689L16.0001 4.99173L17.7276 4.02689L17.7325 4.02396Z" fill="url(#paint0_linear_2122_548)" stroke="white" stroke-width="2"/>
<path d="M14.7494 19.7548C14.6672 19.7549 14.5858 19.7387 14.5099 19.7073C14.434 19.6758 14.365 19.6296 14.307 19.5715L11.1783 16.4428C11.1185 16.385 11.0709 16.316 11.0381 16.2396C11.0053 16.1633 10.988 16.0812 10.9873 15.9981C10.9866 15.915 11.0024 15.8326 11.0339 15.7557C11.0653 15.6788 11.1118 15.6089 11.1705 15.5502C11.2293 15.4914 11.2992 15.445 11.3761 15.4135C11.453 15.3821 11.5354 15.3662 11.6185 15.3669C11.7015 15.3677 11.7836 15.3849 11.86 15.4177C11.9363 15.4505 12.0054 15.4982 12.0631 15.558L14.7494 18.2443L20.5644 12.4293C20.6221 12.3695 20.6912 12.3218 20.7675 12.289C20.8439 12.2562 20.926 12.239 21.0091 12.2382C21.0921 12.2375 21.1745 12.2534 21.2514 12.2848C21.3283 12.3163 21.3982 12.3627 21.457 12.4215C21.5157 12.4802 21.5622 12.5501 21.5936 12.627C21.6251 12.7039 21.6409 12.7863 21.6402 12.8694C21.6395 12.9525 21.6222 13.0346 21.5894 13.1109C21.5566 13.1873 21.509 13.2563 21.4492 13.314L15.1918 19.5715C15.1338 19.6296 15.0648 19.6758 14.9889 19.7073C14.913 19.7387 14.8316 19.7549 14.7494 19.7548Z" fill="white"/>
<defs>
<linearGradient id="paint0_linear_2122_548" x1="16.001" y1="27.2596" x2="16.001" y2="4.74107" gradientUnits="userSpaceOnUse">
<stop stop-color="#008000"/>
<stop offset="0.994" stop-color="#33B55B"/>
</linearGradient>
</defs>
</svg>
