<svg width="29" height="28" viewBox="0 0 29 28" fill="none" xmlns="http://www.w3.org/2000/svg">
<g clip-path="url(#clip0_1929_509)">
<path fill-rule="evenodd" clip-rule="evenodd" d="M14.5 0C6.7685 0 0.5 6.2685 0.5 14C0.5 21.7315 6.7685 28 14.5 28C22.2315 28 28.5 21.7315 28.5 14C28.5 6.2685 22.2315 0 14.5 0ZM20.989 9.52117C20.779 11.7343 19.8667 17.1068 19.4035 19.586C19.2075 20.636 18.8202 20.9872 18.4468 21.021C17.6337 21.0957 17.0165 20.4832 16.229 19.9675C14.997 19.1602 14.3005 18.6573 13.1047 17.8687C11.7222 16.9575 12.6182 16.457 13.4057 15.6392C13.6122 15.4245 17.1938 12.166 17.2638 11.8708C17.272 11.8335 17.2813 11.6958 17.1985 11.6235C17.1157 11.5512 16.9955 11.5757 16.9092 11.5955C16.7855 11.6235 14.8173 12.9243 11.0035 15.498C10.4447 15.8818 9.93833 16.0685 9.4845 16.0592C8.98517 16.0487 8.02383 15.7768 7.30867 15.5435C6.4325 15.2588 5.73483 15.1072 5.7955 14.6242C5.827 14.3722 6.1735 14.1143 6.83617 13.8507C10.9172 12.0727 13.639 10.9002 15.0005 10.3332C18.889 8.71617 19.6963 8.435 20.2237 8.42567C20.884 8.41633 21.0427 8.96117 20.989 9.52117Z" fill="#33ABDF"/>
</g>
<defs>
<clipPath id="clip0_1929_509">
<rect width="28" height="28" fill="white" transform="translate(0.5)"/>
</clipPath>
</defs>
</svg>
