<svg width="20" height="21" viewBox="0 0 20 21" fill="none" xmlns="http://www.w3.org/2000/svg">
<g clip-path="url(#clip0_1922_512)">
<path d="M20 19.6667C20 19.8877 19.9122 20.0996 19.7559 20.2559C19.5996 20.4122 19.3877 20.5 19.1667 20.5H2.5C1.12167 20.5 0 19.3783 0 18V1.33333C0 1.11232 0.0877974 0.900358 0.244078 0.744078C0.400358 0.587797 0.61232 0.5 0.833333 0.5C1.05435 0.5 1.26631 0.587797 1.42259 0.744078C1.57887 0.900358 1.66667 1.11232 1.66667 1.33333V18C1.66667 18.4592 2.04083 18.8333 2.5 18.8333H19.1667C19.3877 18.8333 19.5996 18.9211 19.7559 19.0774C19.9122 19.2337 20 19.4457 20 19.6667ZM17.5 4.66667H14.1667C13.9457 4.66667 13.7337 4.75446 13.5774 4.91074C13.4211 5.06702 13.3333 5.27899 13.3333 5.5C13.3333 5.72101 13.4211 5.93297 13.5774 6.08926C13.7337 6.24554 13.9457 6.33333 14.1667 6.33333H17.1358L13.0883 10.2558C12.9298 10.4075 12.7189 10.4921 12.4996 10.4921C12.2802 10.4921 12.0693 10.4075 11.9108 10.2558C11.5687 10.0049 11.2246 9.75685 10.8783 9.51167C9.93 8.6175 8.31417 8.65083 7.41 9.55417L3.58833 13.2325C3.42898 13.3858 3.33705 13.5961 3.33275 13.8171C3.32845 14.0382 3.41214 14.2519 3.56542 14.4113C3.71869 14.5706 3.92899 14.6625 4.15005 14.6668C4.3711 14.6711 4.58482 14.5874 4.74417 14.4342L8.5775 10.7442C8.736 10.5925 8.9469 10.5079 9.16625 10.5079C9.3856 10.5079 9.5965 10.5925 9.755 10.7442C9.78917 10.7775 10.7875 11.4883 10.7875 11.4883C11.7367 12.3833 13.3508 12.3517 14.2575 11.4433L18.3325 7.49333V10.4992C18.3325 10.7202 18.4203 10.9321 18.5766 11.0884C18.7329 11.2447 18.9448 11.3325 19.1658 11.3325C19.3868 11.3325 19.5988 11.2447 19.7551 11.0884C19.9114 10.9321 19.9992 10.7202 19.9992 10.4992V7.16583C19.9992 5.7875 18.8775 4.66583 17.4992 4.66583L17.5 4.66667Z" fill="#4B4B4B"/>
</g>
<defs>
<clipPath id="clip0_1922_512">
<rect width="20" height="20" fill="white" transform="translate(0 0.5)"/>
</clipPath>
</defs>
</svg>
