<svg width="24" height="24" viewBox="0 0 24 24" fill="none" xmlns="http://www.w3.org/2000/svg">
<path d="M23.9999 11.247C23.8553 8.90697 23.0291 6.66046 21.6231 4.78438C20.2171 2.90829 18.2929 1.48465 16.0876 0.688948C13.8823 -0.106749 11.4924 -0.239713 9.21247 0.306449C6.93253 0.852611 4.86225 2.05402 3.25686 3.76257C1.65147 5.47112 0.581149 7.61212 0.17785 9.92161C-0.225449 12.2311 0.0559044 14.6081 0.987224 16.7597C1.91854 18.9112 3.45912 20.7432 5.41902 22.0297C7.37892 23.3163 9.67246 24.0012 12.0169 24H18.9999C20.3256 23.9986 21.5966 23.4714 22.534 22.534C23.4714 21.5966 23.9986 20.3256 23.9999 19V11.247ZM21.9999 19C21.9999 19.7956 21.6838 20.5587 21.1212 21.1213C20.5586 21.6839 19.7956 22 18.9999 22H12.0169C10.6058 21.9993 9.21075 21.7013 7.92261 21.1253C6.63446 20.5492 5.48218 19.7082 4.54091 18.657C3.59508 17.6062 2.88484 16.3654 2.4578 15.0177C2.03077 13.6701 1.89681 12.2466 2.06491 10.843C2.33034 8.62889 3.3251 6.56614 4.89235 4.97988C6.4596 3.39361 8.51021 2.37406 10.7209 2.08195C11.1521 2.0279 11.5863 2.00052 12.0209 1.99995C14.3514 1.9936 16.6097 2.80786 18.3999 4.29995C19.4454 5.1689 20.3036 6.24111 20.9224 7.45158C21.5413 8.66206 21.9078 9.98559 21.9999 11.342V19Z" fill="#16423C"/>
<path d="M8 9H12C12.2652 9 12.5196 8.89464 12.7071 8.70711C12.8946 8.51957 13 8.26522 13 8C13 7.73478 12.8946 7.48043 12.7071 7.29289C12.5196 7.10536 12.2652 7 12 7H8C7.73478 7 7.48043 7.10536 7.29289 7.29289C7.10536 7.48043 7 7.73478 7 8C7 8.26522 7.10536 8.51957 7.29289 8.70711C7.48043 8.89464 7.73478 9 8 9ZM16 11H8C7.73478 11 7.48043 11.1054 7.29289 11.2929C7.10536 11.4804 7 11.7348 7 12C7 12.2652 7.10536 12.5196 7.29289 12.7071C7.48043 12.8946 7.73478 13 8 13H16C16.2652 13 16.5196 12.8946 16.7071 12.7071C16.8946 12.5196 17 12.2652 17 12C17 11.7348 16.8946 11.4804 16.7071 11.2929C16.5196 11.1054 16.2652 11 16 11ZM16 15H8C7.73478 15 7.48043 15.1054 7.29289 15.2929C7.10536 15.4804 7 15.7348 7 16C7 16.2652 7.10536 16.5196 7.29289 16.7071C7.48043 16.8946 7.73478 17 8 17H16C16.2652 17 16.5196 16.8946 16.7071 16.7071C16.8946 16.5196 17 16.2652 17 16C17 15.7348 16.8946 15.4804 16.7071 15.2929C16.5196 15.1054 16.2652 15 16 15Z" fill="#16423C"/>
</svg>
