<svg width="24" height="24" viewBox="0 0 24 24" fill="none" xmlns="http://www.w3.org/2000/svg">
<path d="M7 14C9.21 14 11 12.21 11 10C11 7.79 9.21 6 7 6C4.79 6 3 7.79 3 10C3 12.21 4.79 14 7 14ZM7 8C8.1 8 9 8.9 9 10C9 11.1 8.1 12 7 12C5.9 12 5 11.1 5 10C5 8.9 5.9 8 7 8ZM14 23C14 23.55 13.55 24 13 24C12.45 24 12 23.55 12 23C12 20.24 9.76 18 7 18C4.24 18 2 20.24 2 23C2 23.55 1.55 24 1 24C0.45 24 0 23.55 0 23C0 19.14 3.14 16 7 16C10.86 16 14 19.14 14 23ZM24 5V13C24 15.76 21.76 18 19 18H15C14.45 18 14 17.55 14 17C14 16.45 14.45 16 15 16H19C20.65 16 22 14.65 22 13V5C22 3.35 20.65 2 19 2H9.46C8.39 2 7.4 2.58 6.86 3.5C6.58 3.98 5.97 4.14 5.49 3.87C5.37605 3.80403 5.27628 3.71616 5.19644 3.61146C5.1166 3.50676 5.05827 3.38729 5.0248 3.25994C4.99134 3.1326 4.98341 2.99989 5.00146 2.86946C5.01952 2.73903 5.0632 2.61347 5.13 2.5C6.03 0.96 7.69 0 9.46 0H19C21.76 0 24 2.24 24 5ZM13.67 10.92L16.59 8H15C14.45 8 14 7.55 14 7C14 6.45 14.45 6 15 6H18C19.1 6 20 6.9 20 8V11C20 11.55 19.55 12 19 12C18.45 12 18 11.55 18 11V9.41L15.08 12.33C14.7756 12.6345 14.3956 12.8525 13.9791 12.9614C13.5625 13.0704 13.1245 13.0664 12.71 12.95C12.5839 12.9146 12.466 12.8546 12.3631 12.7737C12.2602 12.6927 12.1742 12.5922 12.1102 12.478C12.0461 12.3637 12.0051 12.238 11.9897 12.1079C11.9742 11.9779 11.9845 11.8461 12.02 11.72C12.17 11.19 12.72 10.88 13.26 11.03C13.38 11.06 13.54 11.05 13.67 10.92Z" fill="url(#paint0_linear_1929_574)"/>
<defs>
<linearGradient id="paint0_linear_1929_574" x1="4.41395e-07" y1="3.56467e-06" x2="28.5668" y2="8.32026" gradientUnits="userSpaceOnUse">
<stop stop-color="#6A9C89"/>
<stop offset="0.226401" stop-color="#79A455" stop-opacity="0.98125"/>
<stop offset="0.428426" stop-color="#16423C"/>
<stop offset="0.606096" stop-color="#16423C"/>
<stop offset="1" stop-color="#16423C"/>
</linearGradient>
</defs>
</svg>
