<svg width="29" height="28" viewBox="0 0 29 28" fill="none" xmlns="http://www.w3.org/2000/svg">
<g clip-path="url(#clip0_1929_536)">
<path d="M14.5 28C22.232 28 28.5 21.732 28.5 14C28.5 6.26801 22.232 0 14.5 0C6.76801 0 0.5 6.26801 0.5 14C0.5 21.732 6.76801 28 14.5 28Z" fill="#29A71A"/>
<path d="M20.6727 7.82728C19.2161 6.35616 17.2818 5.45398 15.2186 5.28345C13.1554 5.11293 11.0992 5.68529 9.42087 6.8973C7.74252 8.10931 6.55253 9.88118 6.06553 11.8933C5.57854 13.9054 5.82661 16.0254 6.76499 17.8707L5.84385 22.3427C5.83429 22.3872 5.83402 22.4332 5.84305 22.4779C5.85209 22.5225 5.87023 22.5648 5.89635 22.6021C5.93461 22.6586 5.98923 22.7022 6.0529 22.7269C6.11658 22.7517 6.18629 22.7564 6.25271 22.7405L10.6357 21.7016C12.4758 22.6162 14.5808 22.8483 16.576 22.3566C18.5712 21.8649 20.3273 20.6813 21.5317 19.0164C22.7362 17.3515 23.3109 15.3132 23.1536 13.2644C22.9963 11.2155 22.1172 9.28884 20.6727 7.82728ZM19.3061 18.7346C18.2983 19.7395 17.0006 20.4029 15.5957 20.6313C14.1909 20.8596 12.7499 20.6413 11.4757 20.0073L10.8648 19.705L8.17771 20.3414L8.18567 20.308L8.74249 17.6034L8.4434 17.0132C7.79233 15.7345 7.56266 14.2826 7.78728 12.8654C8.0119 11.4483 8.6793 10.1385 9.69385 9.12387C10.9687 7.84946 12.6974 7.13354 14.5 7.13354C16.3026 7.13354 18.0313 7.84946 19.3061 9.12387C19.317 9.13632 19.3287 9.14802 19.3411 9.15887C20.6001 10.4366 21.303 12.1602 21.2964 13.9539C21.2898 15.7477 20.5744 17.4661 19.3061 18.7346Z" fill="white"/>
<path d="M19.0675 16.7507C18.7382 17.2693 18.2179 17.9041 17.5641 18.0616C16.4186 18.3384 14.6607 18.0711 12.4732 16.0316L12.4461 16.0077C10.5227 14.2243 10.0232 12.74 10.1441 11.5627C10.2109 10.8945 10.7677 10.29 11.237 9.89545C11.3112 9.83212 11.3992 9.78703 11.4939 9.76379C11.5887 9.74055 11.6875 9.7398 11.7826 9.7616C11.8777 9.7834 11.9664 9.82714 12.0415 9.88934C12.1167 9.95153 12.1762 10.0304 12.2154 10.1198L12.9234 11.7107C12.9694 11.8138 12.9864 11.9276 12.9727 12.0397C12.959 12.1518 12.915 12.258 12.8454 12.347L12.4875 12.8116C12.4107 12.9075 12.3643 13.0242 12.3544 13.1467C12.3445 13.2692 12.3714 13.3918 12.4318 13.4989C12.6322 13.8504 13.1127 14.3675 13.6457 14.8464C14.2438 15.3873 14.9072 15.882 15.3272 16.0507C15.4396 16.0966 15.5632 16.1078 15.682 16.0828C15.8008 16.0579 15.9094 15.9979 15.9938 15.9107L16.4091 15.4923C16.4892 15.4133 16.5888 15.3569 16.6978 15.329C16.8068 15.301 16.9213 15.3025 17.0295 15.3332L18.7111 15.8104C18.8039 15.8389 18.8889 15.8882 18.9597 15.9545C19.0305 16.0209 19.0852 16.1026 19.1195 16.1933C19.1539 16.284 19.1671 16.3814 19.1581 16.478C19.1491 16.5746 19.1181 16.6679 19.0675 16.7507Z" fill="white"/>
</g>
<defs>
<clipPath id="clip0_1929_536">
<rect width="28" height="28" fill="white" transform="translate(0.5)"/>
</clipPath>
</defs>
</svg>
