<svg width="32" height="32" viewBox="0 0 32 32" fill="none" xmlns="http://www.w3.org/2000/svg">
<path d="M17.7325 4.02393C18.2582 3.73328 18.8649 3.66718 19.4317 3.82275L19.4444 3.82568C19.948 3.97095 20.3739 4.27484 20.6719 4.6958L20.7911 4.8833L20.7989 4.89502H20.7979L21.6319 6.396H23.3536C24.5941 6.39609 25.6046 7.40741 25.6046 8.64795V10.3628L27.1075 11.2036L27.1104 11.2046C28.189 11.8114 28.582 13.1813 27.9756 14.271L27.9747 14.2729L27.0079 15.9995L27.9747 17.7271L27.9766 17.731L28.0753 17.9321C28.2807 18.4083 28.3149 18.9351 28.1788 19.4312L28.1749 19.4438C28.0088 20.019 27.6362 20.4929 27.1182 20.7905L27.1075 20.7964L25.6046 21.6362V23.3521C25.6046 24.5926 24.5941 25.6039 23.3536 25.604H21.6319L20.7979 27.105L20.7911 27.1167C20.4934 27.635 20.0198 28.0083 19.4444 28.1743L19.4317 28.1772C18.8649 28.3328 18.2582 28.2667 17.7325 27.9761L17.7276 27.9731L16.0001 27.0073L14.2735 27.9731L14.2667 27.9771C13.9206 28.1668 13.5481 28.2573 13.1729 28.2573C12.9855 28.2573 12.7809 28.2365 12.5674 28.1772L12.5577 28.1743C11.9823 28.0083 11.5077 27.635 11.21 27.1167L11.2032 27.105L10.3692 25.604H8.6485C7.4079 25.604 6.39655 24.5927 6.39655 23.3521V21.6353L4.89459 20.7964L4.88385 20.7905C4.3658 20.4929 3.99326 20.019 3.82721 19.4438L3.8233 19.4312C3.66765 18.8641 3.73454 18.2568 4.02545 17.731L4.0274 17.7271L4.99323 15.9995L4.0274 14.2729L4.02643 14.271C3.41996 13.1813 3.81295 11.8114 4.89166 11.2046L4.89459 11.2036L6.39655 10.3638V8.64795C6.39655 7.40735 7.4079 6.396 8.6485 6.396H10.3692L11.2032 4.89502L11.21 4.8833C11.5077 4.36504 11.9823 3.99167 12.5577 3.82568L12.5704 3.82275C13.0665 3.68663 13.5932 3.71978 14.0694 3.92529L14.2696 4.02393L14.2735 4.02686L16.0001 4.9917L17.7276 4.02686L17.7325 4.02393Z" fill="#E9EFEC" stroke="white" stroke-width="2"/>
<path d="M14.7494 19.7549C14.6672 19.7549 14.5858 19.7388 14.5099 19.7073C14.434 19.6759 14.365 19.6297 14.307 19.5715L11.1783 16.4428C11.1185 16.3851 11.0709 16.316 11.0381 16.2397C11.0053 16.1634 10.988 16.0812 10.9873 15.9982C10.9866 15.9151 11.0024 15.8327 11.0339 15.7558C11.0653 15.6789 11.1118 15.609 11.1705 15.5503C11.2293 15.4915 11.2992 15.445 11.3761 15.4136C11.453 15.3821 11.5354 15.3663 11.6185 15.367C11.7015 15.3677 11.7836 15.385 11.86 15.4178C11.9363 15.4506 12.0054 15.4982 12.0631 15.558L14.7494 18.2443L20.5644 12.4293C20.6221 12.3695 20.6912 12.3219 20.7675 12.2891C20.8439 12.2563 20.926 12.239 21.0091 12.2383C21.0921 12.2376 21.1745 12.2534 21.2514 12.2849C21.3283 12.3163 21.3982 12.3628 21.457 12.4216C21.5157 12.4803 21.5622 12.5502 21.5936 12.6271C21.6251 12.704 21.6409 12.7864 21.6402 12.8695C21.6395 12.9525 21.6222 13.0347 21.5894 13.111C21.5566 13.1873 21.509 13.2564 21.4492 13.3141L15.1918 19.5715C15.1338 19.6297 15.0648 19.6759 14.9889 19.7073C14.913 19.7388 14.8316 19.7549 14.7494 19.7549Z" fill="white"/>
</svg>
