<svg width="20" height="21" viewBox="0 0 20 21" fill="none" xmlns="http://www.w3.org/2000/svg">
<g clip-path="url(#clip0_2076_607)">
<path d="M5.83333 9.66667C8.13083 9.66667 10 7.7975 10 5.5C10 3.2025 8.13083 1.33334 5.83333 1.33334C3.53583 1.33334 1.66667 3.2025 1.66667 5.5C1.66667 7.7975 3.53583 9.66667 5.83333 9.66667ZM5.83333 3C7.21167 3 8.33333 4.12167 8.33333 5.5C8.33333 6.87834 7.21167 8 5.83333 8C4.455 8 3.33333 6.87834 3.33333 5.5C3.33333 4.12167 4.455 3 5.83333 3ZM9.9 15.335C9.96667 15.6633 10 15.9983 10 16.3333V19.6667C10 19.8877 9.9122 20.0996 9.75592 20.2559C9.59964 20.4122 9.38768 20.5 9.16667 20.5C8.94565 20.5 8.73369 20.4122 8.57741 20.2559C8.42113 20.0996 8.33333 19.8877 8.33333 19.6667V16.3333C8.33328 16.1089 8.31095 15.885 8.26667 15.665C8.22622 15.4498 8.27211 15.2273 8.39441 15.0457C8.51671 14.864 8.7056 14.7378 8.92023 14.6943C9.13485 14.6509 9.35797 14.6936 9.54132 14.8133C9.72466 14.9331 9.85351 15.121 9.9 15.335ZM19.1667 3.49334V1.33334C19.167 1.22381 19.1457 1.1153 19.1039 1.01404C19.0621 0.91279 19.0008 0.820793 18.9233 0.743345C18.8459 0.665897 18.7539 0.604527 18.6526 0.562765C18.5514 0.521003 18.4429 0.499674 18.3333 0.500004C17.8742 0.500004 17.5233 0.745837 17.4208 1.10334C17.2242 1.78917 16.66 2.16667 15.8333 2.16667H14.1667C12.7883 2.16667 11.6667 3.28834 11.6667 4.66667C11.6667 5.24584 11.8725 5.7725 12.2042 6.19667L13.6817 9.62334L12.2867 11.0775C12.2086 11.1583 12.1152 11.2227 12.0118 11.2667C11.9085 11.3108 11.7974 11.3338 11.685 11.3342H5C2.2425 11.3342 0 13.5767 0 16.3342V19.6675C0 19.8885 0.0877974 20.1005 0.244078 20.2568C0.400358 20.413 0.61232 20.5008 0.833333 20.5008C1.05435 20.5008 1.26631 20.413 1.42259 20.2568C1.57887 20.1005 1.66667 19.8885 1.66667 19.6675V16.3342C1.66667 14.4958 3.16167 13.0008 5 13.0008H11.685C12.3617 13.0008 13.0192 12.7208 13.4892 12.2317C13.4892 12.2317 15.2267 10.4125 15.4367 10.2025C15.6467 9.9925 15.8375 9.6125 15.83 9.41917C15.8458 9.22346 15.8123 9.02692 15.7325 8.8475L15.0742 7.1675H15.8342C16.6608 7.1675 17.225 7.545 17.4217 8.23084C17.5242 8.58834 17.8533 8.83417 18.3333 8.83417C18.5543 8.83417 18.7663 8.74637 18.9226 8.59009C19.0789 8.43381 19.1667 8.22185 19.1667 8.00084V5.84084C19.6508 5.66834 20.0008 5.21 20.0008 4.6675C20.0008 4.125 19.6517 3.66667 19.1675 3.49417L19.1667 3.49334ZM17.5 5.88667C16.9837 5.62547 16.4119 5.49282 15.8333 5.5H14.1667C13.7075 5.5 13.3333 5.12584 13.3333 4.66667C13.3333 4.2075 13.7075 3.83334 14.1667 3.83334H15.8333C16.4525 3.83334 17.0175 3.6975 17.5 3.44667V5.88667Z" fill="#4B4B4B"/>
</g>
<defs>
<clipPath id="clip0_2076_607">
<rect width="20" height="20" fill="white" transform="translate(0 0.5)"/>
</clipPath>
</defs>
</svg>
