<svg width="20" height="20" viewBox="0 0 20 20" fill="none" xmlns="http://www.w3.org/2000/svg">
<g clip-path="url(#clip0_1928_662)">
<path d="M7.47498 8.60167C7.50426 8.68198 7.50813 8.76935 7.48607 8.85194C7.46401 8.93452 7.41708 9.00833 7.35165 9.06333L6.36581 9.86667L6.77331 11.1083C6.80072 11.1903 6.80188 11.2787 6.77663 11.3613C6.75139 11.4439 6.70099 11.5166 6.63248 11.5692C6.56393 11.6215 6.48088 11.6515 6.39468 11.6549C6.30847 11.6583 6.22331 11.6351 6.15081 11.5883L5.00331 10.8408L3.87498 11.5958C3.80324 11.6439 3.71836 11.6684 3.63205 11.6661C3.54575 11.6638 3.46229 11.6348 3.39322 11.583C3.32414 11.5312 3.27285 11.4593 3.24645 11.3771C3.22004 11.2949 3.21982 11.2065 3.24581 11.1242L3.63748 9.8675L2.64665 9.06167C2.5817 9.00647 2.53524 8.93269 2.51354 8.85027C2.49183 8.76785 2.49593 8.68076 2.52527 8.60074C2.5546 8.52072 2.60778 8.45162 2.67761 8.40276C2.74744 8.3539 2.83058 8.32763 2.91581 8.3275H4.16581L4.60831 7.08583C4.63783 7.00595 4.69112 6.93704 4.761 6.88837C4.83087 6.83969 4.91399 6.8136 4.99915 6.8136C5.0843 6.8136 5.16742 6.83969 5.2373 6.88837C5.30717 6.93704 5.36046 7.00595 5.38998 7.08583L5.83248 8.3275H7.08248C7.16801 8.32747 7.25148 8.35377 7.32155 8.40282C7.39162 8.45187 7.44489 8.52129 7.47415 8.60167H7.47498ZM12.0833 8.3275H10.8333L10.3908 7.08583C10.3613 7.00595 10.308 6.93704 10.2381 6.88837C10.1683 6.83969 10.0851 6.8136 9.99998 6.8136C9.91482 6.8136 9.83171 6.83969 9.76183 6.88837C9.69195 6.93704 9.63867 7.00595 9.60915 7.08583L9.16665 8.3275H7.91665C7.8312 8.32717 7.74772 8.35316 7.67758 8.40196C7.60743 8.45075 7.55402 8.51996 7.5246 8.60019C7.49519 8.68042 7.4912 8.76776 7.51319 8.85033C7.53518 8.9329 7.58207 9.00669 7.64748 9.06167L8.63831 9.8675L8.24665 11.1242C8.22065 11.2065 8.22087 11.2949 8.24728 11.3771C8.27369 11.4593 8.32497 11.5312 8.39405 11.583C8.46313 11.6348 8.54659 11.6638 8.63289 11.6661C8.71919 11.6684 8.80408 11.6439 8.87581 11.5958L10.0041 10.8408L11.1516 11.5883C11.224 11.6353 11.3092 11.6586 11.3954 11.6551C11.4816 11.6516 11.5645 11.6214 11.6329 11.5688C11.7012 11.5161 11.7515 11.4435 11.7768 11.361C11.8021 11.2786 11.8012 11.1903 11.7741 11.1083L11.3666 9.86667L12.3525 9.06333C12.418 9.00834 12.465 8.93451 12.4871 8.85187C12.5092 8.76923 12.5054 8.68179 12.4761 8.60142C12.4468 8.52105 12.3934 8.45165 12.3233 8.40264C12.2532 8.35364 12.1697 8.3274 12.0841 8.3275H12.0833ZM17.0833 8.3275H15.8333L15.3908 7.08583C15.3613 7.00595 15.308 6.93704 15.2381 6.88837C15.1683 6.83969 15.0851 6.8136 15 6.8136C14.9148 6.8136 14.8317 6.83969 14.7618 6.88837C14.692 6.93704 14.6387 7.00595 14.6091 7.08583L14.1666 8.3275H12.9166C12.8312 8.32717 12.7477 8.35316 12.6776 8.40196C12.6074 8.45075 12.554 8.51996 12.5246 8.60019C12.4952 8.68042 12.4912 8.76776 12.5132 8.85033C12.5352 8.9329 12.5821 9.00669 12.6475 9.06167L13.6383 9.8675L13.2466 11.1242C13.2207 11.2065 13.2209 11.2949 13.2473 11.3771C13.2737 11.4593 13.325 11.5312 13.394 11.583C13.4631 11.6348 13.5466 11.6638 13.6329 11.6661C13.7192 11.6684 13.8041 11.6439 13.8758 11.5958L15.0041 10.8408L16.1516 11.5883C16.224 11.6353 16.3092 11.6586 16.3954 11.6551C16.4816 11.6516 16.5645 11.6214 16.6329 11.5688C16.7012 11.5161 16.7515 11.4435 16.7768 11.361C16.8021 11.2786 16.8012 11.1903 16.7741 11.1083L16.3666 9.86667L17.3525 9.06333C17.418 9.00834 17.465 8.93451 17.4871 8.85187C17.5092 8.76923 17.5054 8.68179 17.4761 8.60142C17.4468 8.52105 17.3934 8.45165 17.3233 8.40264C17.2532 8.35364 17.1689 8.3274 17.0833 8.3275ZM20 5.8325V12.4992C20 14.3375 18.505 15.8325 16.6666 15.8325H14.29L11.0833 18.4825C10.7862 18.7447 10.4029 18.8882 10.0066 18.8858C9.59603 18.8863 9.19953 18.736 8.89248 18.4633L5.76831 15.8325H3.33248C1.49415 15.8325 -0.000854492 14.3375 -0.000854492 12.4992V5.83333C0.000468526 4.94954 0.352197 4.10234 0.977212 3.47748C1.60223 2.85262 2.44952 2.5011 3.33331 2.5H16.6666C18.505 2.5 20 3.99417 20 5.8325ZM18.3333 5.8325C18.3333 4.91333 17.5858 4.16583 16.6666 4.16583H3.33331C2.41415 4.16583 1.66665 4.91333 1.66665 5.8325V12.4992C1.66665 13.4183 2.41415 14.1658 3.33331 14.1658H6.07331C6.26915 14.1658 6.45998 14.235 6.61081 14.3617L9.98415 17.2033L13.46 14.3567C13.6093 14.2332 13.7971 14.1657 13.9908 14.1658H16.6675C17.5866 14.1658 18.3341 13.4183 18.3341 12.4992V5.83333L18.3333 5.8325Z" fill="#16423C"/>
</g>
<defs>
<clipPath id="clip0_1928_662">
<rect width="20" height="20" fill="white"/>
</clipPath>
</defs>
</svg>
