<svg width="186" height="24" viewBox="0 0 186 24" fill="none" xmlns="http://www.w3.org/2000/svg">
<g clip-path="url(#clip0_1917_1387)">
<path d="M13.7735 0V5.06179C13.6314 5.15511 13.502 5.28121 13.4031 5.4401L7.81655 15.3972C7.44614 15.6318 7.08842 15.884 6.74593 16.1538C6.63937 16.2346 6.53535 16.3203 6.43133 16.4111C4.37381 18.1513 2.89473 20.5473 2.3239 23.2736C0.200411 21.9571 -0.740824 19.0946 0.664686 16.6784L8.3138 3.50315C9.55187 1.37705 11.6195 0.209332 13.7735 0Z" fill="#114232"/>
<path d="M23.6222 17.4552C23.2797 17.0845 22.9144 16.7339 22.5287 16.4086C22.4247 16.3178 22.3207 16.2346 22.2142 16.1513C21.8717 15.8815 21.5139 15.6293 21.1435 15.3947L21.1232 15.3569C22.0695 15.947 22.8966 16.6532 23.6222 17.4552Z" fill="#060606"/>
<path d="M27.996 22.0151C27.5698 20.3581 26.763 18.8171 25.7178 17.425C24.2565 15.4754 22.3588 13.9344 19.8294 12.9887L19.8167 13.024L15.5596 5.43758C15.4961 5.33922 15.4226 5.25347 15.3439 5.18033C15.3033 5.1425 15.2627 5.10971 15.2196 5.07944C15.2094 5.0744 15.1993 5.06683 15.1917 5.05927V0C17.3431 0.209332 19.4133 1.37705 20.6488 3.50315L28.2979 16.6759C29.3483 18.4842 29.0869 20.5422 27.9986 22.0151H27.996Z" fill="#87A922"/>
<path d="M26.6336 23.2711C25.8954 23.7276 25.015 24 24.0408 24H24.0154C22.8611 23.9622 21.7753 23.4578 20.9888 22.6179C19.3625 20.8878 17.0513 19.8058 14.4813 19.8058H14.4762C11.9062 19.8058 9.59248 20.8878 7.96878 22.6179C7.18231 23.4552 6.09646 23.9622 4.94212 24H4.91675C3.93999 24 3.06218 23.7301 2.32391 23.2711C2.89474 20.5448 4.37382 18.1488 6.43135 16.4086C6.53537 16.3178 6.63938 16.2346 6.74594 16.1513C7.0859 15.8815 7.44616 15.6293 7.81656 15.3947C8.69691 14.8348 9.65337 14.3808 10.6656 14.058C11.8682 13.6721 13.1468 13.4653 14.4762 13.4653H14.4813C15.8107 13.4653 17.0919 13.6721 18.2919 14.058C19.3067 14.3808 20.2607 14.8348 21.141 15.3947C21.5114 15.6293 21.8666 15.8815 22.2116 16.1513C22.3182 16.232 22.4222 16.3178 22.5262 16.4086C22.9118 16.7339 23.2772 17.0845 23.6197 17.4552C23.6197 17.4603 23.6247 17.4603 23.6273 17.4628C25.0429 18.9962 26.0755 20.8903 26.5702 22.9886C26.5753 22.9987 26.5753 23.0088 26.5778 23.0164C26.5981 23.1021 26.6159 23.1854 26.6336 23.2711Z" fill="#114232"/>
<path d="M48.7362 6.67591C47.4245 5.37453 45.8922 4.73897 44.0478 4.73897C42.2033 4.73897 40.6811 5.37453 39.3695 6.67591C38.0578 7.97982 37.4211 9.49811 37.4211 11.3266V18.0429C37.4211 18.401 37.5403 18.686 37.7991 18.9433C38.0452 19.1904 38.3293 19.3064 38.6921 19.3064C39.0549 19.3064 39.3365 19.1904 39.5801 18.9433C39.8363 18.6885 39.9581 18.4035 39.9581 18.0429V14.9029H48.145V18.0429C48.145 18.4061 48.2618 18.691 48.5053 18.9382C48.7615 19.1854 49.0482 19.3064 49.4136 19.3064C49.7789 19.3064 50.0529 19.1879 50.299 18.9483C50.5527 18.6936 50.6694 18.4086 50.6694 18.0454V11.3291C50.6694 9.50063 50.0377 7.98235 48.7336 6.67844L48.7362 6.67591ZM48.1476 12.3808H39.9606V11.3291C39.9606 10.2194 40.364 9.25347 41.1606 8.44893C41.9623 7.66456 42.934 7.26356 44.0503 7.26356C45.1666 7.26356 46.1383 7.66456 46.94 8.45145C47.7417 9.24842 48.1476 10.2144 48.1476 11.3291V12.3808Z" fill="#114232"/>
<path d="M55.1041 19.3039C54.7438 19.3039 54.4597 19.1879 54.2111 18.9407C53.9548 18.686 53.8356 18.401 53.8356 18.0429V6.00252C53.8356 5.64691 53.9523 5.36696 54.206 5.1198C54.4648 4.8575 54.7464 4.74149 55.1041 4.74149C55.4618 4.74149 55.7434 4.8575 55.9921 5.10971C56.2559 5.36696 56.3726 5.64691 56.3726 6.00252V16.7944H62.5249C62.8826 16.7944 63.1642 16.9105 63.4128 17.1627C63.6665 17.4149 63.7832 17.6948 63.7832 18.0429C63.7832 18.3909 63.6665 18.6835 63.4179 18.9306C63.1642 19.1879 62.8826 19.3039 62.5249 19.3039H55.1041Z" fill="#114232"/>
<path d="M68.0759 19.3039C67.7156 19.3039 67.4315 19.1879 67.1829 18.9407C66.9266 18.686 66.8074 18.401 66.8074 18.0429V6.00252C66.8074 5.64691 66.9241 5.36696 67.1778 5.1198C67.4366 4.8575 67.7182 4.74149 68.0759 4.74149C68.4336 4.74149 68.7152 4.8575 68.9638 5.10971C69.2277 5.36696 69.3444 5.64691 69.3444 6.00252V16.7944H75.4967C75.8544 16.7944 76.136 16.9105 76.3846 17.1627C76.6383 17.4149 76.755 17.6948 76.755 18.0429C76.755 18.3909 76.6383 18.6835 76.3897 18.9306C76.136 19.1879 75.8544 19.3039 75.4967 19.3039H68.0759Z" fill="#114232"/>
<path d="M91.9442 6.87011C90.5032 5.43758 88.8059 4.74149 86.7636 4.74149C84.7213 4.74149 83.0266 5.4401 81.583 6.87011C80.1369 8.31021 79.4417 9.99495 79.4417 12.0202C79.4417 14.0454 80.1394 15.7377 81.5804 17.1702C83.0291 18.6078 84.7264 19.3039 86.7661 19.3039C88.8059 19.3039 90.5057 18.6053 91.9467 17.1753C93.3877 15.7377 94.088 14.0555 94.088 12.0202C94.088 9.98487 93.3852 8.31021 91.9467 6.87011H91.9442ZM90.1505 15.3846C89.2194 16.3203 88.0778 16.7919 86.7636 16.7919C85.4494 16.7919 84.3052 16.3203 83.3767 15.3897C82.4456 14.4641 81.9762 13.3342 81.9762 12.0227C81.9762 10.7112 82.4456 9.58386 83.3767 8.65826C84.3078 7.73266 85.4494 7.26356 86.7636 7.26356C88.0778 7.26356 89.2169 7.73518 90.148 8.65574C91.0867 9.58134 91.5636 10.7163 91.5636 12.0227C91.5636 13.3291 91.0867 14.4691 90.153 15.3871L90.1505 15.3846Z" fill="#114232"/>
<path d="M98.5861 19.3039C98.2258 19.3039 97.9417 19.1879 97.6931 18.9407C97.4368 18.686 97.3176 18.401 97.3176 18.0429V6.00252C97.3176 5.64691 97.4343 5.36696 97.688 5.1198C97.9468 4.8575 98.2284 4.74149 98.5861 4.74149C98.9438 4.74149 99.2254 4.8575 99.4741 5.10971C99.7379 5.36696 99.8546 5.64691 99.8546 6.00252V16.7944H106.007C106.365 16.7944 106.646 16.9105 106.895 17.1627C107.149 17.4149 107.265 17.6948 107.265 18.0429C107.265 18.3909 107.149 18.6835 106.9 18.9306C106.646 19.1879 106.365 19.3039 106.007 19.3039H98.5861Z" fill="#114232"/>
<path d="M121.604 6.67591C120.293 5.37453 118.76 4.73897 116.916 4.73897C115.072 4.73897 113.549 5.37453 112.238 6.67591C110.926 7.97982 110.289 9.49811 110.289 11.3266V18.0429C110.289 18.401 110.409 18.686 110.667 18.9433C110.926 19.2005 111.198 19.3064 111.56 19.3064C111.923 19.3064 112.205 19.1904 112.453 18.9433C112.707 18.6885 112.826 18.4035 112.826 18.0429V14.9029H121.013V18.0429C121.013 18.4061 121.13 18.691 121.374 18.9382C121.63 19.1854 121.917 19.3064 122.282 19.3064C122.647 19.3064 122.921 19.1879 123.167 18.9483C123.421 18.6936 123.538 18.4086 123.538 18.0454V11.3291C123.538 9.50063 122.906 7.98235 121.602 6.67844L121.604 6.67591ZM121.016 12.3808H112.829V11.3291C112.829 10.2194 113.232 9.25347 114.029 8.44893C114.831 7.66456 115.802 7.26356 116.919 7.26356C118.035 7.26356 119.007 7.66456 119.808 8.45145C120.61 9.24842 121.016 10.2144 121.016 11.3291V12.3808Z" fill="#114232"/>
<path d="M150.1 19.3039C148.063 19.3039 146.366 18.6078 144.917 17.1728C143.476 15.7402 142.776 14.0555 142.776 12.0227C142.776 9.98991 143.476 8.31021 144.92 6.87011C146.366 5.43758 148.063 4.74149 150.1 4.74149C151.004 4.74149 151.894 4.90794 152.752 5.23329C153.594 5.56368 154.365 6.04035 155.037 6.64817C155.299 6.88525 155.428 7.15763 155.443 7.50567V7.59899C155.443 7.91929 155.339 8.18159 155.119 8.42371C154.88 8.68348 154.606 8.81211 154.256 8.82472H154.162C153.84 8.82472 153.576 8.72131 153.33 8.50189C152.896 8.09836 152.389 7.78058 151.831 7.56873C151.29 7.36444 150.709 7.26356 150.1 7.26356C148.784 7.26356 147.644 7.73266 146.713 8.65574C145.782 9.58134 145.31 10.7137 145.31 12.0227C145.31 13.3317 145.782 14.4641 146.713 15.3897C147.642 16.3203 148.781 16.7944 150.1 16.7944C150.676 16.7944 151.227 16.7011 151.737 16.517C152.262 16.3253 152.744 16.0479 153.175 15.6923C153.416 15.4956 153.662 15.4048 153.952 15.4048C153.995 15.4048 154.038 15.4073 154.086 15.4124C154.446 15.4451 154.715 15.5864 154.941 15.8588C155.139 16.0984 155.233 16.343 155.233 16.633C155.233 16.6759 155.23 16.7188 155.225 16.7667C155.192 17.1248 155.05 17.3922 154.776 17.6166C154.116 18.1639 153.381 18.5876 152.584 18.8802C151.785 19.1627 150.945 19.3064 150.098 19.3064L150.1 19.3039Z" fill="#114232"/>
<path d="M159.906 19.3039C159.546 19.3039 159.262 19.1879 159.013 18.9407C158.757 18.686 158.637 18.401 158.637 18.0429V6.00252C158.637 5.64691 158.754 5.36696 159.008 5.1198C159.267 4.8575 159.548 4.74149 159.906 4.74149H167.89C168.248 4.74149 168.529 4.8575 168.778 5.10971C169.042 5.36696 169.158 5.64691 169.158 6.00252C169.158 6.35813 169.042 6.63808 168.788 6.88525C168.529 7.14754 168.248 7.26608 167.89 7.26608H161.174V10.7642H167.35C167.702 10.7642 167.986 10.8827 168.243 11.1375C168.491 11.3846 168.608 11.6671 168.608 12.0252C168.608 12.3834 168.491 12.6658 168.243 12.913C167.986 13.1677 167.702 13.2863 167.35 13.2863H161.174V16.797H167.89C168.25 16.797 168.534 16.913 168.783 17.1602C169.039 17.4149 169.158 17.6974 169.158 18.0479C169.158 18.3985 169.039 18.691 168.783 18.9458C168.534 19.1929 168.25 19.309 167.89 19.309H159.906V19.3039Z" fill="#114232"/>
<path d="M182.308 19.2005C182.044 19.2005 181.803 19.1198 181.572 18.9508L177.526 15.9647C177.236 15.7528 177.079 15.4905 177.026 15.14C177.016 15.0744 177.011 14.9987 177.011 14.9281C177.011 14.6734 177.092 14.4388 177.262 14.2093C177.52 13.8588 177.83 13.7024 178.266 13.7024H179.263C180.172 13.7024 180.953 13.377 181.587 12.7364C182.224 12.1034 182.549 11.3241 182.549 10.4237C182.549 9.02648 181.778 7.98487 180.38 7.49054C179.855 7.30643 179.291 7.21564 178.703 7.21564C178.114 7.21564 177.541 7.30895 177.023 7.49054C175.625 7.98235 174.854 9.02396 174.854 10.4237V17.9369C174.854 18.2951 174.735 18.5801 174.479 18.8348C174.23 19.082 173.946 19.198 173.586 19.198C173.225 19.198 172.941 19.082 172.693 18.8348C172.436 18.5801 172.317 18.2951 172.317 17.9369V10.4237C172.317 9.08953 172.68 7.97982 173.426 7.03405C174.106 6.16393 175.011 5.53846 176.191 5.12484C176.99 4.83733 177.833 4.69357 178.703 4.69357C179.573 4.69357 180.415 4.83733 181.207 5.12232C182.394 5.53846 183.297 6.16141 183.977 7.03153C184.726 7.97982 185.086 9.08953 185.086 10.4237C185.086 12.0353 184.528 13.3745 183.378 14.5145C183.125 14.7667 182.848 14.9962 182.562 15.1955L181.618 15.8512L183.079 16.9332C183.361 17.1425 183.515 17.4048 183.569 17.7604C183.579 17.826 183.584 17.8991 183.584 17.9723C183.584 18.227 183.503 18.4615 183.333 18.691C183.122 18.976 182.861 19.1324 182.516 19.1854C182.45 19.1929 182.376 19.198 182.305 19.198L182.308 19.2005Z" fill="#114232"/>
<path d="M139.417 5.10214C139.168 4.85498 138.887 4.73897 138.524 4.73897C138.161 4.73897 137.879 4.85498 137.631 5.10214C137.375 5.35687 137.253 5.64187 137.253 6.00252V14.4388C137.253 14.5195 137.26 14.8121 137.253 14.8852V16.2724C137.253 16.8121 136.497 16.9483 136.301 16.4464L135.794 15.1248C135.748 14.9987 135.71 14.8903 135.652 14.7541L135.325 13.8991L133.247 8.54477V8.54981L132.501 6.63052C132.265 6.0454 131.89 5.59143 131.367 5.24338C130.852 4.90542 130.291 4.73897 129.657 4.73897C128.952 4.73897 128.345 4.94073 127.8 5.35687L127.754 5.38462C127.716 5.41236 127.681 5.43758 127.643 5.47037C127.011 6.01513 126.701 6.66835 126.701 7.45523V18.0378C126.701 18.396 126.821 18.681 127.079 18.9382C127.328 19.1854 127.61 19.3014 127.972 19.3014C128.335 19.3014 128.617 19.1854 128.865 18.9382C129.122 18.6835 129.243 18.3985 129.243 18.0378V7.77301C129.243 7.23329 129.999 7.0971 130.195 7.59899L130.702 8.92055C130.753 9.05422 130.799 9.17781 130.844 9.2913L131.172 10.1463L133.249 15.5006V15.4956L133.995 17.4149C134.231 18 134.607 18.454 135.129 18.802C135.644 19.14 136.205 19.3064 136.839 19.3064C137.545 19.3064 138.151 19.1047 138.696 18.6885L138.742 18.6608C138.78 18.633 138.816 18.6078 138.854 18.575C139.485 18.0303 139.795 17.377 139.795 16.5902V6.00252C139.795 5.64439 139.676 5.35939 139.417 5.10214Z" fill="#114232"/>
</g>
<defs>
<clipPath id="clip0_1917_1387">
<rect width="185.091" height="24" fill="white"/>
</clipPath>
</defs>
</svg>
